# xmcd CD database file
#
# Track frame offsets:
#	150
#	28145
#	69087
#	93049
#	143918
#	180542
#	188647
#	222772
#	248197
#
# Disc length: 3736 seconds
#
# Revision: 0
# Processed by: cddbd v1.5.2PL0 Copyright (c) Steve Scherf et al.
# Submitted via: CDex 1.51
#
DISCID=720e9609
DTITLE=Phil Bancroft Trio - Swings and Roundbouts
DYEAR=1998
DGENRE=Jazz
TTITLE0=Jiggle
TTITLE1=Space Buffie 1999
TTITLE2=B's Niece (for Lisa Molly)
TTITLE3=Rock House
TTITLE4=Hubert and Cowboy Pete
TTITLE5=Free
TTITLE6=I Got It Bad
TTITLE7=Swings and Roundabouts
TTITLE8=Love-gone Wrong
EXTD=YEAR: 1998
EXTT0=
EXTT1=
EXTT2=
EXTT3=
EXTT4=
EXTT5=
EXTT6=
EXTT7=
EXTT8=
PLAYORDER=
